<?xml version="1.0" standalone="no"?>
<!DOCTYPE svg PUBLIC "-//W3C//DTD SVG 20010904//EN"
 "http://www.w3.org/TR/2001/REC-SVG-20010904/DTD/svg10.dtd">
<svg version="1.0" xmlns="http://www.w3.org/2000/svg"
 width="512.000000pt" height="512.000000pt" viewBox="0 0 512.000000 512.000000"
 preserveAspectRatio="xMidYMid meet">
<metadata>
Created by potrace 1.14, written by Peter Selinger 2001-2017
</metadata>
<g transform="translate(0.000000,512.000000) scale(0.100000,-0.100000)"
fill="#000000" stroke="none">
<path d="M2379 5116 c-2 -2 -40 -6 -83 -10 -44 -4 -82 -8 -85 -10 -3 -2 -31
-7 -61 -11 -30 -3 -75 -11 -100 -17 -25 -5 -56 -12 -70 -14 -48 -10 -197 -54
-286 -85 -398 -140 -788 -408 -1064 -729 -64 -74 -76 -89 -143 -180 -208 -280
-367 -643 -436 -995 -40 -200 -46 -267 -45 -515 0 -184 3 -241 19 -345 3 -16
7 -43 9 -60 37 -265 165 -623 307 -860 10 -16 27 -46 38 -65 19 -36 131 -195
166 -239 246 -301 506 -518 820 -685 228 -122 538 -225 781 -261 22 -4 50 -8
64 -11 144 -26 531 -26 708 1 75 12 90 14 142 25 30 6 66 13 80 16 111 21 368
110 505 175 657 311 1148 878 1364 1576 18 56 34 113 37 128 3 15 11 55 19 89
36 155 50 297 50 521 0 193 -3 251 -16 330 -4 28 -10 66 -13 85 -2 19 -9 58
-15 85 -6 28 -13 61 -15 75 -55 276 -217 639 -401 900 -414 583 -1032 963
-1735 1065 -19 3 -53 7 -75 11 -44 6 -460 15 -466 10z m316 -457 c72 -19 154
-51 166 -65 6 -8 18 -14 26 -14 7 0 51 -37 97 -82 136 -136 194 -284 183 -472
-12 -221 -133 -405 -332 -506 -44 -22 -90 -43 -102 -45 -13 -3 -33 -8 -45 -11
-56 -15 -177 -15 -248 0 -207 43 -370 183 -455 391 -27 64 -29 80 -29 200 -1
111 2 140 22 196 76 219 270 385 487 416 22 3 41 6 43 8 6 5 151 -7 187 -16z
m-1423 -1039 c212 -51 393 -225 448 -431 20 -72 21 -81 21 -155 2 -173 -61
-325 -184 -446 -215 -210 -550 -233 -787 -55 -88 67 -142 133 -190 232 -103
213 -70 471 83 652 149 175 388 255 609 203z m2912 -18 c187 -64 331 -211 389
-397 31 -99 31 -262 0 -360 -37 -117 -109 -222 -208 -301 -114 -91 -225 -128
-380 -128 -93 1 -121 5 -185 28 -100 35 -170 79 -240 148 -90 89 -154 210
-175 333 -7 42 -8 166 -1 200 42 210 172 376 359 459 48 21 89 32 182 50 56
10 182 -5 259 -32z m-1505 -855 c61 -41 92 -94 98 -169 4 -52 1 -72 -17 -111
-59 -125 -224 -167 -331 -84 -137 105 -112 312 46 384 18 8 56 12 96 10 52 -2
75 -8 108 -30z m-865 -807 c288 -65 497 -348 472 -641 -13 -152 -69 -272 -181
-384 -118 -119 -239 -173 -405 -180 -173 -7 -329 55 -454 179 -136 136 -206
344 -174 514 4 26 10 56 12 67 25 131 134 279 268 366 134 86 304 115 462 79z
m1768 0 c101 -23 213 -86 292 -166 239 -239 240 -618 3 -857 -114 -115 -254
-177 -413 -182 -338 -12 -619 250 -629 587 -6 178 50 323 171 443 88 88 90 89
177 130 123 59 268 75 399 45z"/>
<path d="M5071 1122 c-64 -112 -125 -204 -210 -316 l-75 -98 0 -354 -1 -354
168 0 167 0 0 600 c0 330 -1 600 -2 600 -2 0 -23 -35 -47 -78z"/>
</g>
</svg>
